<svg xmlns="http://www.w3.org/2000/svg" width="403.575" height="331.42" viewBox="0 0 403.575 331.42">
  <g id="City" transform="translate(-1367.782 -616.58)">
    <path id="City_grass" data-name="City grass" d="M1488.329,646.317v-30H1891.9v30Z" transform="translate(-120.547 301.683)" fill="#a1ffd9"/>
    <g id="Buidings">
      <g id="Buiding_Shadow" data-name="Buiding Shadow">
        <path id="Контур_23" data-name="Контур 23" d="M1488.329,777.778V616.317h26.547V777.778Z" transform="translate(-120.547 48.418)" fill="#f5f5f5"/>
        <path id="Контур_29" data-name="Контур 29" d="M1488.329,788.891V616.317h26.547V788.891Z" transform="translate(-30.547 5.305)" fill="#f5f5f5"/>
        <path id="Контур_21" data-name="Контур 21" d="M1488.329,783.778V616.317h96.791V783.778Z" transform="translate(176.453 45.418)" fill="#f5f5f5"/>
        <path id="Контур_30" data-name="Контур 30" d="M1488.329,734.982V616.317h34.257V734.982Z" transform="translate(128.453 48.214)" fill="#f5f5f5"/>
        <path id="Контур_31" data-name="Контур 31" d="M1488.329,810.982V616.317h34.257V810.982Z" transform="translate(28.453 5.214)" fill="#f5f5f5"/>
      </g>
      <g id="Core">
        <path id="Контур_8" data-name="Контур 8" d="M1488.329,771.2V616.317h59.7V771.2Z" transform="translate(-112 54)" fill="#c4d1fe"/>
        <path id="Контур_9" data-name="Контур 9" d="M1488.329,824.933V616.317h96.791V824.933Z" transform="translate(-43.547 0.263)" fill="#a1ffd9"/>
        <path id="Контур_10" data-name="Контур 10" d="M1488.329,660.749V616.317h96.791v44.432Z" transform="translate(62.453 164.447)" fill="#7affcb"/>
        <path id="Контур_11" data-name="Контур 11" d="M1488.329,771.2V616.317h96.791V771.2Z" transform="translate(168.453 54)" fill="#c4d1fe"/>
      </g>
    </g>
    <path id="City_water" data-name="City water" d="M1488.329,692.6V616.317H1891.9V692.6Z" transform="translate(-120.547 217.164)" fill="#8091ff"/>
    <g id="Windows" transform="translate(8 40)">
      <path id="Контур_13" data-name="Контур 13" d="M1488.329,628.451V616.317h36.6v12.134Z" transform="translate(-43.196 -19.786)" fill="#bffee6"/>
      <path id="Контур_14" data-name="Контур 14" d="M1488.329,628.451V616.317h36.6v12.134Z" transform="translate(-43.196 2.214)" fill="#31feae"/>
      <path id="Контур_25" data-name="Контур 25" d="M1488.329,628.451V616.317h83.718v12.134Z" transform="translate(168.244 110.214)" fill="#31feae"/>
      <path id="Контур_26" data-name="Контур 26" d="M1488.329,628.451V616.317h83.718v12.134Z" transform="translate(169.244 132.214)" fill="#31feae"/>
      <path id="Контур_18" data-name="Контур 18" d="M1488.329,628.451V616.317h36.6v12.134Z" transform="translate(-108.196 26.214)" fill="#a1feda"/>
      <path id="Контур_20" data-name="Контур 20" d="M1488.329,628.451V616.317h36.6v12.134Z" transform="translate(-108.196 146.214)" fill="#3564fb"/>
      <path id="Контур_19" data-name="Контур 19" d="M1488.329,665.366V616.317h36.6v49.049Z" transform="translate(-108.196 54.299)" fill="#a2b8ff"/>
      <path id="Контур_15" data-name="Контур 15" d="M1488.329,650.981V616.317h36.6v34.664Z" transform="translate(-3.196 47.214)" fill="#7d9cff"/>
      <path id="Контур_16" data-name="Контур 16" d="M1488.329,650.981V616.317h36.6v34.664Z" transform="translate(-46.196 46.214)" fill="#3b5dca"/>
      <path id="Контур_17" data-name="Контур 17" d="M1488.329,650.981V616.317h36.6v34.664Z" transform="translate(-12.196 117.214)" fill="#597ff7"/>
      <path id="Контур_27" data-name="Контур 27" d="M1488.329,641.173V616.317h62.839v24.856Z" transform="translate(169.124 28.214)" fill="#bffee6"/>
      <path id="Контур_28" data-name="Контур 28" d="M1488.329,634.3V616.317h17.447V634.3Z" transform="translate(194.38 56.071)" fill="#5f84fb"/>
      <path id="Контур_46" data-name="Контур 46" d="M1488.329,634.3V616.317h17.447V634.3Z" transform="translate(194.38 82.071)" fill="#5f84fb"/>
      <path id="Контур_47" data-name="Контур 47" d="M1488.329,634.3V616.317h17.447V634.3Z" transform="translate(169.38 82.071)" fill="#5f84fb"/>
      <path id="Контур_48" data-name="Контур 48" d="M1488.329,634.3V616.317h17.447V634.3Z" transform="translate(169.38 56.071)" fill="#31feae"/>
      <path id="Контур_44" data-name="Контур 44" d="M1488.329,634.3V616.317h17.447V634.3Z" transform="translate(232.38 56.071)" fill="#7d9cff"/>
      <path id="Контур_45" data-name="Контур 45" d="M1488.329,634.3V616.317h17.447V634.3Z" transform="translate(232.38 84.071)" fill="#aebff7"/>
    </g>
    <path id="Bridge" d="M1580.487,875.465c.978-.3-17.851-39.028.259-85.281,43.6.158,39.974,0,39.974,0s-11.39,42.656,5.458,85.281C1578.79,873.793,1579.509,875.766,1580.487,875.465Z" transform="translate(8 40)" fill="#ccc8ff"/>
    <g id="Water_Turbulence" data-name="Water Turbulence" transform="translate(8 40)">
      <g id="Сгруппировать_4" data-name="Сгруппировать 4">
        <path id="Контур_42" data-name="Контур 42" d="M1386.329,831.326s18.213,3.509,21.8-5.227" transform="translate(11.849 1.991)" fill="none" stroke="#fff" stroke-width="2"/>
        <path id="Контур_43" data-name="Контур 43" d="M1401.35,831.326a23.044,23.044,0,0,1-3.78.626c-3.735.334-9.631-.157-11.241-5.853" transform="translate(32.13 1.991)" fill="none" stroke="#fff" stroke-width="2"/>
      </g>
      <g id="Сгруппировать_5" data-name="Сгруппировать 5" transform="translate(74 -14)">
        <path id="Контур_42-2" data-name="Контур 42" d="M1386.329,831.326s18.213,3.509,21.8-5.227" transform="translate(11.849 1.991)" fill="none" stroke="#fff" stroke-width="2"/>
        <path id="Контур_43-2" data-name="Контур 43" d="M1401.35,831.326a23.044,23.044,0,0,1-3.78.626c-3.735.334-9.631-.157-11.241-5.853" transform="translate(32.13 1.991)" fill="none" stroke="#fff" stroke-width="2"/>
      </g>
      <g id="Сгруппировать_8" data-name="Сгруппировать 8" transform="translate(85 17)">
        <path id="Контур_42-3" data-name="Контур 42" d="M1386.329,831.326s18.213,3.509,21.8-5.227" transform="translate(11.849 1.991)" fill="none" stroke="#fff" stroke-width="2"/>
        <path id="Контур_43-3" data-name="Контур 43" d="M1401.35,831.326a23.044,23.044,0,0,1-3.78.626c-3.735.334-9.631-.157-11.241-5.853" transform="translate(32.13 1.991)" fill="none" stroke="#fff" stroke-width="2"/>
      </g>
      <g id="Сгруппировать_17" data-name="Сгруппировать 17" transform="translate(315 14)">
        <path id="Контур_42-4" data-name="Контур 42" d="M1386.329,831.326s18.213,3.509,21.8-5.227" transform="translate(11.849 1.991)" fill="none" stroke="#fff" stroke-width="2"/>
        <path id="Контур_43-4" data-name="Контур 43" d="M1401.35,831.326a23.044,23.044,0,0,1-3.78.626c-3.735.334-9.631-.157-11.241-5.853" transform="translate(32.13 1.991)" fill="none" stroke="#fff" stroke-width="2"/>
      </g>
      <g id="Сгруппировать_18" data-name="Сгруппировать 18" transform="translate(245 -17)">
        <path id="Контур_42-5" data-name="Контур 42" d="M1386.329,831.326s18.213,3.509,21.8-5.227" transform="translate(11.849 1.991)" fill="none" stroke="#fff" stroke-width="2"/>
        <path id="Контур_43-5" data-name="Контур 43" d="M1401.35,831.326a23.044,23.044,0,0,1-3.78.626c-3.735.334-9.631-.157-11.241-5.853" transform="translate(32.13 1.991)" fill="none" stroke="#fff" stroke-width="2"/>
      </g>
    </g>
    <g id="Fence" transform="translate(8 40)">
      <g id="Poles">
        <rect id="Прямоугольник_13" data-name="Прямоугольник 13" width="5" height="25" rx="2" transform="translate(1375 858)" fill="#606cb9"/>
        <rect id="Прямоугольник_18" data-name="Прямоугольник 18" width="5" height="25" rx="2" transform="translate(1450 858)" fill="#606cb9"/>
        <rect id="Прямоугольник_21" data-name="Прямоугольник 21" width="5" height="25" rx="2" transform="translate(1525 858)" fill="#606cb9"/>
        <rect id="Прямоугольник_14" data-name="Прямоугольник 14" width="5" height="25" rx="2" transform="translate(1400 858)" fill="#606cb9"/>
        <rect id="Прямоугольник_17" data-name="Прямоугольник 17" width="5" height="25" rx="2" transform="translate(1475 858)" fill="#606cb9"/>
        <rect id="Прямоугольник_20" data-name="Прямоугольник 20" width="5" height="25" rx="2" transform="translate(1550 858)" fill="#606cb9"/>
        <rect id="Прямоугольник_15" data-name="Прямоугольник 15" width="5" height="25" rx="2" transform="translate(1425 858)" fill="#606cb9"/>
        <rect id="Прямоугольник_16" data-name="Прямоугольник 16" width="5" height="25" rx="2" transform="translate(1500 858)" fill="#606cb9"/>
      </g>
      <g id="Ropes">
        <path id="Контур_45-2" data-name="Контур 45" d="M1377.5,858c.427-.951,14.2,16.906,25.443,0" transform="translate(0 4)" fill="none" stroke="#a1ffd9" stroke-width="3"/>
        <path id="Контур_46-2" data-name="Контур 46" d="M1377.5,858c.427-.951,14.2,16.906,25.443,0" transform="translate(25 5)" fill="none" stroke="#a1ffd9" stroke-width="3"/>
        <path id="Контур_47-2" data-name="Контур 47" d="M1377.5,858c.427-.951,14.2,16.906,25.443,0" transform="translate(50 3)" fill="none" stroke="#a1ffd9" stroke-width="3"/>
        <path id="Контур_48-2" data-name="Контур 48" d="M1377.5,858c.427-.951,14.2,16.906,25.443,0" transform="translate(75 5)" fill="none" stroke="#a1ffd9" stroke-width="3"/>
        <path id="Контур_49" data-name="Контур 49" d="M1377.5,858c.427-.951,14.2,16.906,25.443,0" transform="translate(101 3)" fill="none" stroke="#a1ffd9" stroke-width="3"/>
        <path id="Контур_50" data-name="Контур 50" d="M1377.5,858c.427-.951,14.2,16.906,25.443,0" transform="translate(125 7)" fill="none" stroke="#a1ffd9" stroke-width="3"/>
        <path id="Контур_51" data-name="Контур 51" d="M1377.5,858c.427-.951,14.2,16.906,25.443,0" transform="translate(150 5)" fill="none" stroke="#a1ffd9" stroke-width="3"/>
      </g>
    </g>
  </g>
</svg>
