<svg xmlns="http://www.w3.org/2000/svg" width="291.18" height="200.329" viewBox="0 0 291.18 200.329">
  <g id="Stromicon" transform="translate(-1529 -450.012)">
    <ellipse id="Эллипс_14" data-name="Эллипс 14" cx="55.298" cy="51.682" rx="55.298" ry="51.682" transform="translate(1529 490.389)" fill="#494656"/>
    <ellipse id="Эллипс_15" data-name="Эллипс 15" cx="55.298" cy="51.682" rx="55.298" ry="51.682" transform="translate(1569.61 467.778)" fill="#494656"/>
    <circle id="Эллипс_16" data-name="Эллипс 16" cx="55.298" cy="55.298" r="55.298" transform="translate(1618.86 476.787)" fill="#494656"/>
    <ellipse id="Эллипс_17" data-name="Эллипс 17" cx="55.298" cy="51.682" rx="55.298" ry="51.682" transform="translate(1631.82 450.012)" fill="#494656"/>
    <ellipse id="Эллипс_18" data-name="Эллипс 18" cx="55.298" cy="51.682" rx="55.298" ry="51.682" transform="translate(1687.118 477.468)" fill="#494656"/>
    <ellipse id="Эллипс_19" data-name="Эллипс 19" cx="55.298" cy="51.682" rx="55.298" ry="51.682" transform="translate(1709.583 507.347)" fill="#494656"/>
    <circle id="Эллипс_20" data-name="Эллипс 20" cx="55.298" cy="55.298" r="55.298" transform="translate(1639.596 500.116)" fill="#494656"/>
    <ellipse id="Эллипс_21" data-name="Эллипс 21" cx="55.298" cy="51.682" rx="55.298" ry="51.682" transform="translate(1569.61 507.347)" fill="#494656"/>
    <path id="Контур_59" data-name="Контур 59" d="M3701.846-562.351,3640.5-623.7l22.465-10.368,26.785,5.184,9.5-22.465L3661.237-688.5" transform="translate(-1969.366 1206.328)" fill="none" stroke="#fd0" stroke-width="18"/>
    <path id="Контур_60" data-name="Контур 60" d="M3623.881-674.4l31.24,25.868L3630.327-626.3l17.273,36.2" transform="translate(-2026.725 1213.915)" fill="none" stroke="#fd0" stroke-width="15"/>
  </g>
</svg>
